<?xml version="1.0" encoding="UTF-8"?>
<svg id="Layer_2" xmlns="http://www.w3.org/2000/svg" viewBox="0 0 247.1 277.21">
  <defs>
    <style>
      .cls-1 {
        fill: #afbacc;
      }

      .cls-2 {
        fill: #231f20;
      }
    </style>
  </defs>
  <path class="cls-1" d="M247.1,8.12v260.96c0,4.49-3.97,8.13-8.86,8.13H39.76c-4.89,0-8.86-3.64-8.86-8.13V106.05c0-4.49-3.97-8.13-8.86-8.13h-13.18c-4.89,0-8.86-3.64-8.86-8.13V8.13C0,3.64,3.97,0,8.86,0h229.37c4.89,0,8.86,3.64,8.86,8.13h0Z"/>
  <g>
    <path class="cls-2" d="M70.95,141.93c-1.75,0-3.25-.36-4.49-1.08s-2.2-1.72-2.87-3.01c-.67-1.29-1-2.78-1-4.47s.33-3.19,1-4.47c.67-1.29,1.62-2.29,2.87-3.01s2.75-1.08,4.49-1.08c2.02,0,3.7.47,5.04,1.42,1.34.95,2.29,2.22,2.83,3.83l-2.95.76c-.34-1.07-.92-1.91-1.74-2.52s-1.88-.91-3.18-.91c-1.17,0-2.15.25-2.93.74-.78.5-1.37,1.19-1.76,2.08-.39.89-.59,1.94-.6,3.14,0,1.2.2,2.25.59,3.14s.98,1.59,1.77,2.08,1.76.74,2.94.74c1.3,0,2.36-.3,3.18-.91s1.4-1.45,1.74-2.51l2.95.76c-.54,1.61-1.49,2.88-2.83,3.83s-3.02,1.42-5.04,1.42v.03Z"/>
    <path class="cls-2" d="M88.89,141.93c-1.75,0-3.25-.36-4.49-1.08s-2.2-1.72-2.87-3.01c-.67-1.29-1-2.78-1-4.47s.33-3.19,1-4.47c.67-1.29,1.62-2.29,2.87-3.01s2.75-1.08,4.49-1.08,3.25.36,4.5,1.08,2.21,1.72,2.88,3.01c.67,1.29,1,2.78,1,4.47s-.33,3.19-1,4.47c-.67,1.28-1.63,2.29-2.88,3.01s-2.75,1.08-4.5,1.08ZM88.89,139.34c1.17,0,2.15-.24,2.93-.73.78-.5,1.37-1.19,1.76-2.09s.59-1.95.59-3.15-.2-2.25-.59-3.13c-.39-.89-.98-1.58-1.76-2.07-.78-.5-1.76-.75-2.93-.76-1.17,0-2.15.24-2.93.73-.78.49-1.36,1.19-1.75,2.09s-.59,1.95-.59,3.15.19,2.25.58,3.13c.39.89.97,1.58,1.75,2.07s1.76.75,2.93.76h.01Z"/>
    <path class="cls-2" d="M99.7,141.58v-16.43h2.96l8.11,11.58v-11.58h2.96v16.43h-2.96l-8.11-11.58v11.58h-2.96Z"/>
    <path class="cls-2" d="M117.14,141.58v-16.43h10.53v2.75h-7.6v4.1h6.15v2.74h-6.15v6.85h-2.93Z"/>
    <path class="cls-2" d="M129.85,141.58v-16.43h11.29v2.58h-8.37v4.05h6.91v2.58h-6.91v4.64h8.37v2.58h-11.29Z"/>
    <path class="cls-2" d="M144.06,141.58v-16.43h7.23c.17,0,.39,0,.66.02.27.01.51.04.74.07,1.01.14,1.85.46,2.51.95.66.49,1.15,1.1,1.47,1.84.32.74.48,1.57.48,2.47,0,1.34-.36,2.49-1.08,3.45-.72.96-1.83,1.56-3.32,1.79l-1.25.1h-4.51v5.74h-2.93,0ZM146.99,133.28h4.18c.16,0,.34,0,.55-.02.2-.01.39-.04.56-.09.49-.11.87-.32,1.15-.6s.48-.62.59-.98.18-.72.18-1.07-.06-.71-.18-1.08-.32-.7-.59-.99-.66-.49-1.15-.6c-.17-.05-.36-.07-.56-.09-.2-.01-.38-.02-.55-.02h-4.18v5.54h0ZM154.1,141.58l-3.45-6.69,2.97-.62,3.79,7.3h-3.32.01Z"/>
    <path class="cls-2" d="M160.09,141.58v-16.43h11.29v2.58h-8.37v4.05h6.91v2.58h-6.91v4.64h8.37v2.58h-11.29Z"/>
    <path class="cls-2" d="M174.3,141.58v-16.43h2.96l8.11,11.58v-11.58h2.96v16.43h-2.96l-8.11-11.58v11.58h-2.96Z"/>
    <path class="cls-2" d="M199.13,141.93c-1.75,0-3.25-.36-4.49-1.08s-2.2-1.72-2.87-3.01-1-2.78-1-4.47.33-3.19,1-4.47c.67-1.29,1.62-2.29,2.87-3.01s2.75-1.08,4.49-1.08c2.02,0,3.7.47,5.04,1.42,1.34.95,2.29,2.22,2.83,3.83l-2.95.76c-.34-1.07-.92-1.91-1.74-2.52s-1.88-.91-3.18-.91c-1.17,0-2.15.25-2.93.74-.78.5-1.37,1.19-1.76,2.08-.39.89-.59,1.94-.6,3.14,0,1.2.2,2.25.59,3.14s.98,1.59,1.77,2.08,1.76.74,2.94.74c1.3,0,2.36-.3,3.18-.91s1.4-1.45,1.74-2.51l2.95.76c-.54,1.61-1.49,2.88-2.83,3.83s-3.02,1.42-5.04,1.42v.03Z"/>
    <path class="cls-2" d="M209.68,141.58v-16.43h11.29v2.58h-8.37v4.05h6.91v2.58h-6.91v4.64h8.37v2.58h-11.29Z"/>
    <path class="cls-2" d="M107.12,168.97v-16.43h7.23c.17,0,.39,0,.66.02.27.01.51.04.74.07,1.01.14,1.85.46,2.51.95.66.49,1.15,1.1,1.47,1.84.32.74.48,1.57.48,2.47,0,1.34-.36,2.49-1.08,3.45-.72.96-1.83,1.56-3.32,1.79l-1.25.1h-4.51v5.74h-2.93,0ZM110.04,160.66h4.18c.16,0,.34,0,.55-.02.2-.01.39-.04.56-.09.49-.11.87-.32,1.15-.6s.48-.62.59-.98.18-.72.18-1.07-.06-.71-.18-1.08-.32-.7-.59-.99-.66-.49-1.15-.6c-.17-.05-.36-.07-.56-.09-.2-.01-.38-.02-.55-.02h-4.18v5.54h0ZM117.16,168.97l-3.45-6.69,2.97-.62,3.79,7.3h-3.32.01Z"/>
    <path class="cls-2" d="M130.54,169.31c-1.75,0-3.25-.36-4.49-1.08s-2.2-1.72-2.87-3.01-1-2.78-1-4.47.33-3.19,1-4.47c.67-1.29,1.62-2.29,2.87-3.01s2.75-1.08,4.49-1.08,3.25.36,4.5,1.08,2.21,1.72,2.88,3.01c.67,1.29,1,2.78,1,4.47s-.33,3.19-1,4.47c-.67,1.28-1.63,2.29-2.88,3.01s-2.75,1.08-4.5,1.08ZM130.54,166.72c1.17,0,2.15-.24,2.93-.73.78-.5,1.37-1.19,1.76-2.09s.59-1.95.59-3.15-.2-2.25-.59-3.13c-.39-.89-.98-1.58-1.76-2.07-.78-.5-1.76-.75-2.93-.76-1.17,0-2.15.24-2.93.73-.78.49-1.36,1.19-1.75,2.09s-.59,1.95-.59,3.15.19,2.25.58,3.13c.39.89.97,1.58,1.75,2.07s1.76.75,2.93.76h.01Z"/>
    <path class="cls-2" d="M148.75,169.31c-1.75,0-3.25-.36-4.49-1.08s-2.2-1.72-2.87-3.01c-.67-1.29-1-2.78-1-4.47s.33-3.19,1-4.47c.67-1.29,1.62-2.29,2.87-3.01s2.75-1.08,4.49-1.08,3.25.36,4.5,1.08,2.21,1.72,2.88,3.01c.67,1.29,1,2.78,1,4.47s-.33,3.19-1,4.47c-.67,1.28-1.63,2.29-2.88,3.01s-2.75,1.08-4.5,1.08ZM148.75,166.72c1.17,0,2.15-.24,2.93-.73.78-.5,1.37-1.19,1.76-2.09s.59-1.95.59-3.15-.2-2.25-.59-3.13c-.39-.89-.98-1.58-1.76-2.07-.78-.5-1.76-.75-2.93-.76-1.17,0-2.15.24-2.93.73-.78.49-1.36,1.19-1.75,2.09s-.59,1.95-.59,3.15.19,2.25.58,3.13c.39.89.97,1.58,1.75,2.07s1.76.75,2.93.76h.01Z"/>
    <path class="cls-2" d="M159.56,168.97v-16.43h2.64l6.05,11.64,6.05-11.64h2.63v16.43h-2.73v-10.53l-5.37,10.53h-1.17l-5.36-10.53v10.53h-2.75,0Z"/>
  </g>
</svg>