<?xml version="1.0" encoding="UTF-8"?>
<svg id="Layer_2" xmlns="http://www.w3.org/2000/svg" xmlns:xlink="http://www.w3.org/1999/xlink" viewBox="0 0 58.96 160.79">
  <defs>
    <style>
      .cls-1 {
        fill: #fff;
      }

      .cls-2 {
        fill: url(#New_Gradient_Swatch);
      }
    </style>
    <linearGradient id="New_Gradient_Swatch" data-name="New Gradient Swatch" x1="29.48" y1="160.79" x2="29.48" y2="0" gradientUnits="userSpaceOnUse">
      <stop offset="0" stop-color="#fff"/>
      <stop offset="0" stop-color="#fb0023"/>
      <stop offset=".16" stop-color="#f70628"/>
      <stop offset=".39" stop-color="#ed1836"/>
      <stop offset=".65" stop-color="#dd364d"/>
      <stop offset=".94" stop-color="#c65f6d"/>
      <stop offset="1" stop-color="#c16975"/>
    </linearGradient>
  </defs>
  <rect class="cls-2" width="58.96" height="160.79" rx="6.57" ry="6.57"/>
  <g>
    <path class="cls-1" d="M36.22,40.46c0-1.41.33-2.62.95-3.62.62-1,1.49-1.77,2.6-2.3s2.39-.79,3.85-.78c1.46,0,2.74.29,3.84.83,1.1.55,1.96,1.33,2.57,2.33.61,1.01.91,2.22.9,3.63,0,1.63-.43,2.98-1.25,4.06s-1.92,1.83-3.3,2.26l-.64-2.39c.92-.27,1.65-.73,2.17-1.39.52-.66.79-1.51.8-2.56,0-.95-.2-1.74-.62-2.37-.42-.63-1.01-1.11-1.78-1.43-.77-.32-1.67-.49-2.7-.5-1.03,0-1.93.15-2.7.46-.77.31-1.37.78-1.8,1.41-.43.63-.65,1.42-.65,2.37,0,1.05.25,1.91.77,2.57.52.66,1.23,1.13,2.15,1.42l-.67,2.38c-1.38-.45-2.47-1.21-3.27-2.31-.81-1.09-1.2-2.45-1.19-4.08Z"/>
    <path class="cls-1" d="M36.13,52.94c0-.78.14-1.43.4-1.94s.6-.91,1.01-1.21c.41-.3.84-.52,1.3-.66s.89-.23,1.3-.27c.41-.04.74-.06,1-.06l5.91.04v2.39s-5.11-.03-5.11-.03c-.33,0-.69.02-1.1.06-.41.04-.8.15-1.18.31-.38.17-.69.41-.93.74-.24.33-.37.77-.37,1.34,0,.3.04.6.14.89.1.29.26.56.5.8.24.24.56.43.98.58.42.15.95.22,1.59.23l-.61,1.4c-.9,0-1.72-.19-2.45-.54-.73-.35-1.31-.87-1.74-1.55-.43-.68-.64-1.52-.64-2.51ZM36.42,56.4l3.28.02v-.28s7.3.05,7.3.05v2.37s-10.6-.07-10.6-.07v-2.09Z"/>
    <path class="cls-1" d="M36.07,65.32c0-1.31.31-2.37.9-3.18.59-.81,1.42-1.3,2.49-1.47l.36,2.41c-.52.12-.94.39-1.24.82s-.46.96-.46,1.61c0,.57.11,1.01.33,1.32.22.31.53.47.92.47.24,0,.44-.05.58-.17.15-.11.29-.36.43-.75.14-.39.32-.98.53-1.77.24-.89.5-1.59.77-2.11s.6-.89.97-1.12.83-.34,1.36-.33c.66,0,1.23.18,1.72.53.49.35.86.84,1.12,1.46.26.62.39,1.35.38,2.2,0,.82-.14,1.55-.4,2.19-.26.63-.62,1.15-1.1,1.54-.47.39-1.03.63-1.66.71l-.42-2.41c.45-.06.81-.26,1.07-.61s.41-.81.45-1.39c.04-.55-.04-1-.24-1.34-.2-.34-.48-.51-.84-.51-.2,0-.38.07-.52.2-.14.14-.29.41-.44.83-.15.41-.33,1.03-.54,1.85-.22.84-.47,1.52-.75,2.02-.28.5-.62.87-1,1.09s-.85.33-1.4.33c-1.07,0-1.9-.4-2.5-1.18s-.9-1.85-.89-3.22Z"/>
    <path class="cls-1" d="M36.28,78.05c-.13-.7-.18-1.38-.16-2.05s.15-1.27.38-1.8c.23-.53.6-.93,1.11-1.2.46-.24.93-.36,1.4-.37.48,0,1.02-.01,1.62,0l9.21.06-.02,2.35-9.07-.06c-.42,0-.8,0-1.12,0s-.58.07-.79.2c-.39.23-.62.61-.66,1.12-.05.52-.03,1.1.07,1.76h-1.98ZM45.06,70.73h1.85s-.05,7.39-.05,7.39h-1.85s.05-7.39.05-7.39Z"/>
    <path class="cls-1" d="M35.94,84.47c0-1.06.25-1.98.73-2.77.48-.79,1.14-1.4,1.99-1.82.84-.43,1.81-.64,2.9-.63,1.11,0,2.08.23,2.92.69.83.45,1.48,1.07,1.95,1.86.47.79.7,1.71.69,2.75,0,1.07-.25,1.99-.73,2.78-.48.79-1.14,1.4-1.99,1.83-.84.43-1.81.65-2.9.64-1.1,0-2.07-.23-2.9-.68-.84-.45-1.49-1.07-1.96-1.86-.47-.79-.7-1.72-.69-2.78ZM38.16,84.48c0,.94.3,1.64.93,2.1.62.46,1.43.7,2.43.7,1.03,0,1.85-.22,2.46-.68.61-.46.92-1.15.93-2.08,0-.63-.14-1.16-.42-1.57s-.67-.71-1.18-.91c-.5-.2-1.09-.3-1.76-.3-1.03,0-1.85.22-2.46.68-.61.46-.92,1.15-.93,2.06Z"/>
    <path class="cls-1" d="M36.11,104.62l6.43.04c.73,0,1.29-.17,1.7-.53.41-.36.62-.84.62-1.46,0-.38-.08-.72-.25-1.02-.17-.3-.42-.54-.76-.72-.33-.18-.74-.27-1.2-.27l.62-1.04c.73,0,1.38.17,1.93.51.56.34.99.8,1.3,1.38.31.58.46,1.22.46,1.92,0,1.17-.36,2.06-1.07,2.68-.71.62-1.63.93-2.77.92l-7.03-.04.02-2.36ZM36.15,98.27l6.4.04c.74,0,1.31-.17,1.73-.53.41-.36.62-.85.63-1.47,0-.6-.2-1.08-.61-1.45-.41-.36-.94-.55-1.6-.55l.71-1.05c.69,0,1.3.18,1.85.52.55.34.98.81,1.29,1.39.31.58.47,1.23.46,1.95,0,.79-.18,1.45-.52,1.98-.34.53-.8.92-1.38,1.19-.58.26-1.23.39-1.96.38l-7.02-.04v-2.35ZM36.19,91.89l10.59.07v2.09s-3.3-.02-3.3-.02v.29s-7.3-.05-7.3-.05v-2.38Z"/>
    <path class="cls-1" d="M35.75,114.18c0-1.07.25-2.01.71-2.82s1.12-1.44,1.94-1.88c.83-.45,1.77-.67,2.85-.66,1.16,0,2.16.24,3.01.69.85.45,1.51,1.07,1.97,1.87.46.79.69,1.71.69,2.75,0,1.1-.27,2.03-.79,2.79s-1.25,1.33-2.18,1.7c-.94.37-2.04.5-3.31.4v-2.34s.88,0,.88,0c1.15,0,1.99-.2,2.52-.59.53-.4.8-1.02.81-1.88,0-.97-.29-1.69-.88-2.16-.6-.47-1.47-.71-2.62-.72-1.07,0-1.9.22-2.49.69s-.89,1.15-.89,2.05c0,.58.12,1.08.38,1.51.25.42.63.75,1.12.98l-.72,2.33c-.95-.41-1.69-1.04-2.21-1.89-.52-.85-.78-1.79-.78-2.8ZM40.71,110.56h1.78s-.05,7.29-.05,7.29h-1.78s.05-7.29.05-7.29Z"/>
    <path class="cls-1" d="M36,121.17l10.59.07v2.09s-2.59-.02-2.59-.02l.33-.25c.35.13.67.31.96.53.29.22.53.49.72.79.17.26.31.55.41.87.1.32.16.64.18.98.02.33,0,.66-.05.97h-2.21c.09-.33.13-.69.1-1.1-.03-.41-.14-.78-.34-1.1-.17-.33-.4-.6-.67-.8-.27-.21-.58-.36-.93-.46-.35-.1-.73-.15-1.13-.16l-5.38-.03.02-2.37Z"/>
    <path class="cls-1" d="M12.64,49.91c0-1.03.19-1.96.56-2.78.36-.83.88-1.5,1.56-2.03.67-.53,1.47-.86,2.39-1l.36,2.45c-.84.2-1.49.63-1.95,1.28s-.7,1.4-.7,2.25c0,.5.07.98.23,1.42.15.45.38.81.68,1.09.3.28.67.42,1.1.42.2,0,.38-.03.55-.09.17-.06.32-.16.45-.29.13-.13.25-.29.36-.49.11-.2.2-.43.28-.69l1.1-3.64c.09-.31.22-.65.37-1.01.16-.36.37-.7.64-1.03s.62-.58,1.04-.79c.42-.2.94-.3,1.57-.3.91,0,1.67.24,2.28.71.62.46,1.07,1.09,1.38,1.87.3.78.45,1.65.43,2.61-.01.97-.18,1.83-.51,2.58-.33.75-.8,1.39-1.42,1.89s-1.36.86-2.23,1.06l-.43-2.54c.5-.1.92-.3,1.27-.59.35-.29.62-.66.81-1.08.19-.43.29-.88.3-1.37,0-.47-.06-.91-.2-1.31-.14-.4-.35-.73-.63-.97-.27-.25-.59-.37-.96-.37-.35,0-.63.1-.85.31-.22.21-.39.47-.52.78-.13.31-.24.62-.32.94l-.72,2.52c-.09.35-.22.73-.38,1.17-.16.43-.38.84-.67,1.24-.28.4-.65.72-1.11.98-.46.25-1.04.38-1.75.38-.73,0-1.37-.16-1.92-.47-.55-.31-1.01-.72-1.37-1.24-.36-.52-.63-1.11-.81-1.77s-.27-1.36-.26-2.08Z"/>
    <path class="cls-1" d="M12.55,61.55c0-.78.14-1.43.4-1.94.26-.51.6-.91,1.01-1.21.41-.3.84-.52,1.3-.66.46-.14.89-.23,1.3-.27.41-.04.74-.06,1-.06l5.91.04v2.39s-5.11-.03-5.11-.03c-.33,0-.69.02-1.1.06-.41.04-.8.15-1.18.31-.38.17-.69.41-.93.74-.24.33-.37.77-.37,1.34,0,.3.04.6.14.89.1.29.26.56.5.8.24.24.56.43.98.58.42.15.95.22,1.59.23l-.61,1.4c-.9,0-1.72-.19-2.45-.54-.73-.35-1.31-.87-1.74-1.56-.43-.68-.64-1.52-.64-2.51ZM12.84,65.01l3.28.02v-.28s7.3.05,7.3.05v2.37s-10.6-.07-10.6-.07v-2.09Z"/>
    <path class="cls-1" d="M8.1,69.79l15.29.1v2.09s-7.44-.05-7.44-.05v.29s-7.86-.05-7.86-.05v-2.38ZM12.48,74.93c0-1.03.26-1.9.75-2.59.5-.7,1.17-1.22,2.01-1.57.85-.35,1.8-.52,2.85-.51,1.06,0,2.02.19,2.86.55s1.5.88,1.99,1.57c.48.69.72,1.53.71,2.54,0,1-.26,1.87-.75,2.6-.49.73-1.16,1.3-2,1.7-.84.4-1.8.6-2.87.59-1.06,0-2.01-.21-2.85-.62-.84-.4-1.5-.97-1.99-1.7-.49-.73-.72-1.58-.72-2.55ZM14.6,74.58c0,.61.15,1.12.45,1.52.3.4.72.7,1.24.9.52.2,1.11.3,1.76.3.64,0,1.22-.09,1.75-.28.53-.19.95-.49,1.26-.9.31-.41.47-.93.48-1.57,0-.6-.14-1.09-.43-1.47-.29-.38-.69-.66-1.21-.85-.52-.18-1.12-.28-1.82-.28-.69,0-1.29.08-1.82.26-.52.18-.93.46-1.23.85-.29.39-.44.9-.45,1.53Z"/>
    <path class="cls-1" d="M8.02,81.86l15.29.1v2.09s-7.44-.05-7.44-.05v.29s-7.86-.05-7.86-.05l.02-2.38ZM12.4,87c0-1.03.26-1.9.75-2.59s1.17-1.22,2.01-1.57c.85-.35,1.8-.52,2.85-.51,1.06,0,2.02.19,2.86.55.84.36,1.5.88,1.98,1.57.48.69.72,1.53.71,2.54,0,1-.25,1.87-.75,2.6-.49.73-1.16,1.3-2,1.7-.84.4-1.8.6-2.87.59-1.06,0-2.01-.21-2.85-.62-.84-.4-1.5-.97-1.99-1.7-.49-.73-.72-1.58-.72-2.55ZM14.52,86.65c0,.61.15,1.12.45,1.52s.72.7,1.24.9,1.11.3,1.76.3c.64,0,1.22-.09,1.75-.28.53-.19.95-.49,1.26-.9.31-.41.47-.93.48-1.57,0-.6-.14-1.09-.43-1.47s-.69-.66-1.21-.85c-.52-.18-1.12-.28-1.82-.28-.69,0-1.29.08-1.82.26-.52.18-.93.46-1.23.85-.29.39-.44.9-.45,1.53Z"/>
    <path class="cls-1" d="M12.33,98.67c0-1.06.25-1.98.73-2.77.48-.79,1.14-1.4,1.99-1.83.84-.43,1.81-.64,2.9-.63,1.11,0,2.08.23,2.92.69.83.45,1.48,1.07,1.95,1.86.47.79.7,1.71.69,2.75,0,1.07-.25,1.99-.73,2.78-.48.79-1.14,1.4-1.99,1.83-.84.43-1.81.65-2.9.64-1.1,0-2.07-.23-2.9-.68-.84-.45-1.49-1.07-1.96-1.86-.47-.79-.7-1.72-.69-2.78ZM14.54,98.68c0,.94.3,1.64.93,2.1.62.46,1.43.7,2.43.7,1.03,0,1.85-.22,2.46-.68s.92-1.15.93-2.08c0-.63-.13-1.16-.42-1.57-.28-.41-.68-.72-1.18-.91-.5-.2-1.09-.3-1.76-.3-1.03,0-1.85.22-2.46.68-.61.46-.92,1.15-.93,2.06Z"/>
    <path class="cls-1" d="M12.57,106.11l10.59.07v2.09s-2.59-.02-2.59-.02l.33-.25c.35.13.67.31.96.53.29.22.53.49.71.79.17.26.31.55.41.87.1.32.16.64.18.98.02.33,0,.66-.05.97h-2.21c.09-.33.12-.69.09-1.1s-.14-.78-.34-1.1c-.17-.33-.4-.6-.67-.8-.27-.21-.58-.36-.93-.46-.35-.1-.73-.15-1.13-.15l-5.38-.03.02-2.37Z"/>
    <path class="cls-1" d="M12.48,120.13c-.13-.7-.18-1.38-.16-2.05s.15-1.27.38-1.8c.23-.53.6-.93,1.11-1.2.46-.24.93-.36,1.4-.37.48,0,1.02-.01,1.62,0l9.21.06-.02,2.35-9.07-.06c-.42,0-.8,0-1.12,0s-.58.07-.79.2c-.39.23-.62.61-.66,1.12-.05.52-.03,1.1.07,1.77h-1.98ZM21.26,112.81h1.85s-.05,7.39-.05,7.39h-1.85s.05-7.39.05-7.39Z"/>
  </g>
</svg>