<?xml version="1.0" encoding="UTF-8"?>
<svg id="Layer_2" xmlns="http://www.w3.org/2000/svg" viewBox="0 0 93.27 126.21">
  <defs>
    <style>
      .cls-1 {
        fill: #afbacc;
      }

      .cls-2 {
        fill: #231f20;
      }
    </style>
  </defs>
  <path class="cls-1" d="M93.27,11.97v102.27c0,6.61-4.98,11.97-11.13,11.97H11.13c-6.15,0-11.13-5.36-11.13-11.97V11.97C0,5.36,4.98,0,11.13,0h71.01c6.15,0,11.13,5.36,11.13,11.97Z"/>
  <g>
    <path class="cls-2" d="M46.64,13.62h17.9v10.37h-2.81v-7.68h-4.41v6.34h-2.81v-6.34h-5.06v7.68h-2.81v-10.37h0Z"/>
    <path class="cls-2" d="M46.64,26.88h18.27v2.69h-18.27v-2.69Z"/>
    <path class="cls-2" d="M46.27,38.39c0-1.22.29-2.29.88-3.21.59-.92,1.4-1.64,2.45-2.16,1.04-.52,2.25-.77,3.61-.77,1.47,0,2.74.25,3.82.76s1.92,1.21,2.52,2.11c.6.9.89,1.94.89,3.12,0,1.25-.33,2.31-.98,3.18s-1.57,1.52-2.75,1.95c-1.18.42-2.58.58-4.19.48v-2.66h1.09c1.46,0,2.52-.24,3.19-.69.67-.45,1.01-1.17,1.01-2.14,0-1.1-.38-1.92-1.14-2.45-.76-.54-1.87-.8-3.33-.8-1.36,0-2.41.27-3.16.8-.75.53-1.12,1.31-1.12,2.34,0,.66.16,1.23.49,1.71.33.48.8.85,1.42,1.11l-.89,2.65c-1.21-.46-2.15-1.17-2.82-2.13-.67-.96-1.01-2.02-1.01-3.18l.02-.02ZM52.52,34.24h2.26v8.28h-2.26v-8.28Z"/>
    <path class="cls-2" d="M46.27,51.56c0-1.24.31-2.3.93-3.18s1.46-1.55,2.53-2.01c1.07-.46,2.28-.7,3.63-.71,1.38,0,2.6.25,3.66.73,1.07.48,1.9,1.16,2.51,2.04s.91,1.94.91,3.15c0,1.37-.38,2.53-1.15,3.47-.77.95-1.81,1.57-3.14,1.86l-.81-2.67c.72-.21,1.28-.55,1.68-1.04.4-.48.6-1.03.6-1.65,0-.7-.18-1.27-.55-1.73-.37-.45-.88-.79-1.52-1-.65-.22-1.38-.32-2.2-.32-1.28,0-2.31.26-3.1.77s-1.18,1.27-1.18,2.29c0,.71.18,1.28.55,1.69.36.41.89.72,1.58.93l-.68,2.74c-1.37-.37-2.42-1.02-3.15-1.95s-1.1-2.07-1.1-3.41h0Z"/>
    <path class="cls-2" d="M46.64,66.22c-.17-.79-.24-1.57-.22-2.33s.18-1.44.47-2.05c.29-.6.76-1.06,1.4-1.37.58-.27,1.17-.42,1.78-.43s1.29-.02,2.05-.02h11.67v2.68h-11.5c-.54,0-1.01,0-1.42.02-.41.01-.74.09-1,.23-.5.27-.77.69-.83,1.28-.06.59-.02,1.25.1,2.01h-2.51v-.02ZM57.71,57.83h2.35v8.39h-2.35v-8.39Z"/>
    <path class="cls-2" d="M46.64,68.82h13.42v2.37h-3.27l.42-.29c.45.15.86.35,1.22.6s.67.55.91.9c.22.3.4.63.53.99s.21.73.24,1.11.01.75-.06,1.1h-2.8c.12-.36.15-.77.11-1.23-.04-.46-.19-.88-.44-1.25-.22-.37-.51-.67-.86-.91s-.74-.41-1.19-.52c-.44-.11-.92-.17-1.44-.17h-6.82v-2.7h.03Z"/>
    <path class="cls-2" d="M46.64,77.93h13.42v2.69h-13.42v-2.69ZM62.1,77.93h2.75v2.69h-2.75v-2.69Z"/>
    <path class="cls-2" d="M46.27,89.19c0-1.24.31-2.3.93-3.18s1.46-1.55,2.53-2.01c1.07-.46,2.28-.7,3.63-.71,1.38,0,2.6.25,3.66.73,1.07.48,1.9,1.16,2.51,2.04s.91,1.94.91,3.15c0,1.37-.38,2.53-1.15,3.47-.77.95-1.81,1.57-3.14,1.86l-.81-2.67c.72-.21,1.28-.55,1.68-1.04.4-.48.6-1.03.6-1.65,0-.7-.18-1.27-.55-1.73-.37-.45-.88-.79-1.52-1-.65-.22-1.38-.32-2.2-.32-1.28,0-2.31.26-3.1.77s-1.18,1.27-1.18,2.29c0,.71.18,1.28.55,1.69.36.41.89.72,1.58.93l-.68,2.74c-1.37-.37-2.42-1.02-3.15-1.95s-1.1-2.07-1.1-3.41h0Z"/>
    <path class="cls-2" d="M46.27,99.97c0-.87.18-1.61.55-2.21.37-.6.86-1.06,1.47-1.37s1.29-.46,2.03-.46c.65,0,1.23.1,1.75.29s.97.49,1.34.89.69.92.93,1.56c.17.48.33,1.05.47,1.7s.27,1.36.39,2.12.25,1.56.39,2.39l-.61-.96c.93,0,1.61-.18,2.05-.56s.66-1.02.66-1.92c0-.54-.14-1.07-.42-1.57-.28-.51-.77-.86-1.45-1.06l.86-2.45c1.14.3,2.05.86,2.74,1.7s1.03,1.96,1.03,3.38c0,1.07-.19,2.01-.58,2.83-.39.81-1.03,1.42-1.91,1.81-.47.22-.96.35-1.45.39-.49.04-1.03.07-1.61.07h-8.24v-2.35h2.91l-.47.39c-.97-.54-1.68-1.18-2.13-1.9-.45-.72-.68-1.63-.68-2.71h-.02ZM48.65,100.51c0,.61.12,1.13.36,1.56s.54.77.88,1.03c.35.26.67.43.98.52.38.14.82.22,1.31.24s.89.03,1.2.03l-.27.83c-.14-.81-.27-1.5-.37-2.08-.11-.58-.21-1.08-.3-1.49-.1-.42-.2-.78-.32-1.1-.12-.31-.27-.58-.43-.79-.17-.22-.36-.38-.57-.5s-.47-.17-.76-.17c-.33,0-.62.07-.88.22-.25.15-.45.37-.6.65s-.22.64-.22,1.06h-.01Z"/>
    <path class="cls-2" d="M46.64,109.67h18.27v2.69h-18.27v-2.69Z"/>
    <path class="cls-2" d="M16.81,33.5h17.9v6.63c0,.16,0,.36-.02.6-.01.25-.04.47-.08.68-.16.93-.5,1.7-1.03,2.3s-1.2,1.06-2.01,1.35-1.71.44-2.69.44c-1.46,0-2.71-.33-3.76-.99s-1.7-1.68-1.95-3.04l-.11-1.15v-4.13h-6.25v-2.69h0ZM16.81,42.72l7.28-3.17.67,2.73-7.96,3.48v-3.04h0ZM25.86,36.19v3.83c0,.15,0,.32.02.5s.05.36.1.51c.12.45.34.8.66,1.05.31.26.67.44,1.07.55.4.11.79.16,1.17.16s.77-.05,1.17-.16.76-.29,1.08-.55c.31-.26.53-.61.66-1.05.05-.16.08-.33.09-.51.01-.19.02-.35.02-.5v-3.83h-6.04Z"/>
    <path class="cls-2" d="M16.43,53.54c0-1.2.3-2.26.91-3.16.61-.9,1.44-1.6,2.5-2.09,1.07-.49,2.29-.74,3.67-.74s2.64.25,3.7.76c1.06.51,1.89,1.21,2.49,2.11.6.9.89,1.94.89,3.12s-.3,2.27-.91,3.17c-.61.9-1.44,1.6-2.5,2.1-1.07.5-2.29.75-3.67.75s-2.62-.25-3.69-.75c-1.06-.5-1.9-1.2-2.5-2.1-.6-.9-.9-1.95-.9-3.15v-.02ZM19.24,53.54c0,1.07.4,1.86,1.19,2.38.79.52,1.82.78,3.08.78s2.34-.26,3.11-.79c.78-.53,1.16-1.32,1.16-2.37,0-.72-.18-1.31-.54-1.78-.36-.46-.86-.81-1.5-1.03-.64-.22-1.39-.33-2.23-.33-1.3,0-2.34.27-3.11.8-.78.53-1.16,1.31-1.16,2.35h0Z"/>
    <path class="cls-2" d="M16.43,67.31c0-1.2.3-2.26.91-3.16.61-.9,1.44-1.6,2.5-2.09,1.07-.49,2.29-.74,3.67-.74s2.64.25,3.7.76c1.06.51,1.89,1.21,2.49,2.11.6.9.89,1.94.89,3.12s-.3,2.27-.91,3.17c-.61.9-1.44,1.6-2.5,2.1-1.07.5-2.29.75-3.67.75s-2.62-.25-3.69-.75c-1.06-.5-1.9-1.2-2.5-2.1-.6-.9-.9-1.95-.9-3.15v-.02ZM19.24,67.31c0,1.07.4,1.86,1.19,2.38.79.52,1.82.78,3.08.78s2.34-.26,3.11-.79c.78-.53,1.16-1.32,1.16-2.37,0-.72-.18-1.31-.54-1.78-.36-.46-.86-.81-1.5-1.03-.64-.22-1.39-.33-2.23-.33-1.3,0-2.34.27-3.11.8-.78.53-1.16,1.31-1.16,2.35h0Z"/>
    <path class="cls-2" d="M16.81,75.75h13.42v2.37h-4.16v.33h-9.26v-2.71h0ZM16.81,83.01h8.12c.94,0,1.67-.21,2.19-.61.52-.41.78-.97.78-1.67s-.26-1.23-.78-1.64c-.52-.41-1.2-.62-2.04-.62l.89-1.2c.87,0,1.65.19,2.35.58s1.25.91,1.65,1.57c.4.66.6,1.4.6,2.21,0,.9-.21,1.65-.64,2.26s-1.01,1.06-1.74,1.36-1.56.45-2.48.45h-8.9v-2.69ZM16.81,90.23h8.15c.92,0,1.64-.2,2.16-.61s.78-.96.78-1.66c0-.43-.11-.82-.33-1.16s-.54-.61-.97-.81c-.43-.2-.93-.3-1.52-.3l.78-1.19c.93,0,1.75.18,2.46.56s1.26.9,1.66,1.56c.4.65.6,1.38.6,2.18,0,1.33-.45,2.35-1.34,3.06s-2.06,1.06-3.51,1.06h-8.91v-2.69h-.01Z"/>
  </g>
</svg>