<?xml version="1.0" encoding="UTF-8"?>
<svg id="Layer_2" xmlns="http://www.w3.org/2000/svg" viewBox="0 0 1361 903.08">
  <defs>
    <style>
      .cls-1 {
        fill: #fff;
      }

      .cls-2 {
        fill: #231f20;
        stroke: #231f20;
        stroke-miterlimit: 10;
        stroke-width: 2px;
      }
    </style>
  </defs>
  <polygon class="cls-2" points="1 902.08 386.08 902.08 386.08 902.08 1 902.08"/>
  <path class="cls-1" d="M193.56,17.81v77.85c0,9.83-8.68,17.8-19.39,17.8h-78.56c-10.71,0-19.39,7.97-19.39,17.8v389.06c0,9.83-8.68,17.8-19.39,17.8H20.39c-10.71,0-19.39-7.97-19.39-17.8V17.81C1,7.98,9.68,0,20.39,0h153.77c10.71,0,19.39,7.97,19.39,17.8h0Z"/>
  <path class="cls-1" d="M1361,821.27v69.71c0,5.15-4.18,9.33-9.33,9.33h-734.28c-5.15,0-9.33-4.18-9.33-9.33v-20.01c0-5.15,4.18-9.33,9.33-9.33h668.08c5.15,0,9.33-4.18,9.33-9.33v-31.04c0-5.15,4.18-9.33,9.33-9.33h47.54c5.15,0,9.33,4.18,9.33,9.33Z"/>
  <path class="cls-1" d="M1361,23.32v765.3c0,12.88-11.37,23.31-25.4,23.31h-15.39c-14.03,0-25.4-10.44-25.4-23.31V132.51c0-7.21-3.58-14.08-9.84-18.43-43.75-30.43-107.37-42.19-183.43-34.63-23.7,2.36-48.61,6.59-74.52,12.72-76.11,18.01-160.72,52.42-248.11,103.75-47.76,28.04-96.35,61.15-144.84,99.38-4.67,3.68-10.62,5.72-16.78,5.68-65.63-.43-131.27-.84-196.9-1.27-13.96-.09-25.22-10.5-25.22-23.32V23.32C395.17,10.44,406.54.01,420.57.01h915.03c14.03,0,25.4,10.44,25.4,23.31h0Z"/>
  <rect class="cls-2" x="266.9" y="655.01" height="245.3"/>
  <polygon class="cls-2" points="265.26 655.01 386.08 655.01 386.08 655.01 265.26 655.01"/>
  <polygon class="cls-2" points="453.15 655.01 601.97 655.01 601.97 655.01 453.15 655.01"/>
  <rect class="cls-2" x="585.84" y="300.77" height="75.66"/>
  <polygon class="cls-2" points="1 538.12 298.27 538.12 298.27 538.12 1 538.12"/>
  <rect class="cls-2" x="1" y="538.12" height="363.95"/>
</svg>