<?xml version="1.0" encoding="UTF-8"?>
<svg id="Layer_2" xmlns="http://www.w3.org/2000/svg" viewBox="0 0 193.27 88.7">
  <defs>
    <style>
      .cls-1 {
        fill: #afbacc;
      }

      .cls-2 {
        fill: #231f20;
      }
    </style>
  </defs>
  <path class="cls-1" d="M193.27,15.49v57.72c0,8.56-7.56,15.49-16.88,15.49H16.88c-9.32,0-16.88-6.94-16.88-15.49V15.49C0,6.93,7.56,0,16.88,0h159.51c9.32,0,16.88,6.94,16.88,15.49h0Z"/>
  <g>
    <path class="cls-2" d="M38.53,37.05v-18.62h2.99l6.85,13.19,6.85-13.19h2.99v18.62h-3.1v-11.93l-6.08,11.93h-1.32l-6.07-11.93v11.93h-3.11Z"/>
    <path class="cls-2" d="M62.06,37.05v-18.62h12.8v2.92h-9.48v4.59h7.83v2.92h-7.83v5.26h9.48v2.92h-12.8Z"/>
    <path class="cls-2" d="M78.17,37.05v-18.62h12.8v2.92h-9.48v4.59h7.83v2.92h-7.83v5.26h9.48v2.92h-12.8Z"/>
    <path class="cls-2" d="M99.03,37.05v-15.7h-6.41v-2.92h16.14v2.92h-6.41v15.7h-3.32Z"/>
    <path class="cls-2" d="M111.24,37.05v-18.62h3.32v18.62h-3.32Z"/>
    <path class="cls-2" d="M118.69,37.05v-18.62h3.36l9.19,13.12v-13.12h3.36v18.62h-3.36l-9.19-13.12v13.12h-3.36Z"/>
    <path class="cls-2" d="M146.63,37.43c-1.29,0-2.49-.21-3.61-.64s-2.11-1.05-2.96-1.88-1.51-1.84-1.99-3.04c-.48-1.2-.72-2.58-.72-4.13,0-2.04.4-3.77,1.21-5.22.81-1.44,1.91-2.55,3.32-3.32,1.4-.77,2.99-1.16,4.75-1.16,2.44,0,4.37.53,5.8,1.6,1.43,1.06,2.39,2.56,2.9,4.48l-3.39.5c-.38-1.1-.99-1.98-1.84-2.64-.85-.66-1.94-.99-3.26-.99-1.33-.02-2.44.25-3.32.81s-1.54,1.35-1.99,2.37c-.45,1.02-.67,2.21-.67,3.57s.22,2.54.66,3.55c.44,1,1.1,1.79,1.99,2.35.88.56,1.99.85,3.32.87,1,0,1.88-.16,2.63-.51.75-.35,1.37-.88,1.84-1.59.48-.71.8-1.6.96-2.67h-3.5v-2.44h7.02c.02.14.03.34.04.61,0,.27.01.43.01.48,0,1.76-.37,3.32-1.11,4.69-.74,1.37-1.8,2.44-3.17,3.21-1.38.78-3.02,1.16-4.94,1.16l.02-.02Z"/>
    <path class="cls-2" d="M57.08,68.08v-18.62h8.19c.19,0,.44,0,.74.02s.58.04.84.08c1.15.16,2.09.52,2.84,1.07s1.3,1.25,1.67,2.09c.36.84.54,1.77.54,2.8,0,1.52-.41,2.82-1.22,3.91-.82,1.09-2.07,1.77-3.76,2.02l-1.42.12h-5.11v6.5h-3.32.01ZM60.4,58.67h4.73c.18,0,.39,0,.62-.03.23-.02.44-.05.63-.1.55-.13.98-.36,1.3-.69.32-.33.54-.7.67-1.11s.2-.82.2-1.22-.07-.8-.2-1.22-.36-.79-.67-1.12c-.32-.33-.75-.56-1.3-.68-.19-.05-.4-.08-.63-.1-.23-.01-.44-.02-.62-.02h-4.73v6.28h0ZM68.46,68.08l-3.91-7.58,3.37-.7,4.29,8.28h-3.76.01Z"/>
    <path class="cls-2" d="M83.63,68.47c-1.98,0-3.68-.41-5.09-1.22-1.41-.81-2.5-1.95-3.26-3.41-.76-1.46-1.13-3.15-1.13-5.07s.38-3.61,1.13-5.07c.76-1.46,1.84-2.59,3.26-3.41,1.41-.81,3.11-1.22,5.09-1.22s3.68.41,5.1,1.22,2.5,1.95,3.26,3.41c.76,1.46,1.14,3.15,1.14,5.07s-.38,3.61-1.14,5.07c-.76,1.46-1.84,2.59-3.26,3.41s-3.12,1.22-5.1,1.22ZM83.63,65.53c1.33,0,2.44-.27,3.32-.83s1.55-1.35,2-2.37c.44-1.02.67-2.21.67-3.57s-.22-2.55-.67-3.55c-.45-1-1.11-1.79-2-2.35s-1.99-.85-3.32-.87c-1.33,0-2.44.27-3.32.83s-1.54,1.35-1.99,2.37c-.45,1.02-.67,2.21-.67,3.57s.22,2.54.66,3.55c.44,1,1.1,1.79,1.99,2.35.88.56,1.99.85,3.32.87h.01Z"/>
    <path class="cls-2" d="M104.26,68.47c-1.98,0-3.68-.41-5.09-1.22-1.41-.81-2.5-1.95-3.26-3.41-.76-1.46-1.13-3.15-1.13-5.07s.38-3.61,1.13-5.07c.76-1.46,1.84-2.59,3.26-3.41,1.41-.81,3.11-1.22,5.09-1.22s3.68.41,5.1,1.22,2.5,1.95,3.26,3.41c.76,1.46,1.14,3.15,1.14,5.07s-.38,3.61-1.14,5.07c-.76,1.46-1.84,2.59-3.26,3.41-1.42.82-3.12,1.22-5.1,1.22ZM104.26,65.53c1.33,0,2.44-.27,3.32-.83s1.55-1.35,2-2.37c.44-1.02.67-2.21.67-3.57s-.22-2.55-.67-3.55c-.45-1-1.11-1.79-2-2.35s-1.99-.85-3.32-.87c-1.33,0-2.44.27-3.32.83s-1.54,1.35-1.99,2.37c-.45,1.02-.67,2.21-.67,3.57s.22,2.54.66,3.55c.44,1,1.1,1.79,1.99,2.35.88.56,1.99.85,3.32.87h.01Z"/>
    <path class="cls-2" d="M116.51,68.08v-18.62h2.99l6.85,13.19,6.85-13.19h2.99v18.62h-3.1v-11.93l-6.08,11.93h-1.32l-6.07-11.93v11.93h-3.11Z"/>
  </g>
</svg>