<?xml version="1.0" encoding="UTF-8"?>
<svg id="Layer_2" xmlns="http://www.w3.org/2000/svg" viewBox="0 0 99.68 237.78">
  <defs>
    <style>
      .cls-1 {
        fill: #afbacc;
      }

      .cls-2 {
        fill: #231f20;
      }
    </style>
  </defs>
  <path class="cls-1" d="M99.68,6.83v224.11c0,3.78-3.46,6.83-7.73,6.83H7.73c-4.27,0-7.73-3.07-7.73-6.83V6.83C0,3.06,3.46,0,7.73,0h84.22c4.27,0,7.73,3.07,7.73,6.83h0Z"/>
  <g>
    <path class="cls-2" d="M50.25,41.21c0-1.06.21-2.01.64-2.85.42-.85,1.03-1.54,1.83-2.08s1.73-.89,2.83-1.04l.44,2.51c-.99.21-1.76.66-2.3,1.32s-.81,1.44-.81,2.3c0,.51.09,1,.28,1.46s.46.82.81,1.11.79.42,1.31.42c.23,0,.45-.04.64-.1.2-.07.37-.16.53-.3.15-.13.3-.3.42-.5.13-.2.24-.44.33-.7l1.28-3.73c.11-.32.25-.67.43-1.04s.43-.72.75-1.05.73-.6,1.23-.81c.5-.21,1.12-.32,1.85-.32,1.07,0,1.98.23,2.71.7.73.47,1.28,1.11,1.64,1.91.36.8.54,1.69.53,2.66,0,.99-.2,1.87-.59,2.65-.39.78-.94,1.43-1.67,1.95-.73.52-1.6.89-2.63,1.1l-.52-2.6c.59-.11,1.09-.31,1.5-.62s.73-.67.95-1.11c.22-.44.33-.91.35-1.4,0-.48-.08-.93-.25-1.34s-.42-.74-.75-.99c-.32-.25-.7-.38-1.14-.38-.41,0-.74.11-1,.32-.26.21-.46.48-.62.8-.15.32-.28.64-.38.96l-.84,2.58c-.11.36-.25.75-.44,1.2-.19.44-.45.87-.78,1.27s-.77.74-1.31,1.01c-.54.26-1.23.4-2.07.4s-1.63-.15-2.28-.46-1.2-.73-1.63-1.26-.76-1.13-.97-1.81c-.22-.67-.32-1.39-.32-2.13h.02Z"/>
    <path class="cls-2" d="M50.6,48.05l16.71,4.55v3.54l-16.71,4.55v-2.49l14.99-4.14v.54l-14.99-4.08v-2.49h0ZM54.22,50.58h2.61v7.59h-2.61v-7.59Z"/>
    <path class="cls-2" d="M50.6,62.5h16.71v8.7h-2.8v-6.28h-4.17v5.07h-2.78v-5.07h-6.96v-2.42Z"/>
    <path class="cls-2" d="M50.6,72.99h16.71v9.33h-2.62v-6.91h-4.12v5.71h-2.62v-5.71h-4.72v6.91h-2.62v-9.33h-.01Z"/>
    <path class="cls-2" d="M50.6,88.2h14.08v-4.68h2.62v11.76h-2.62v-4.68h-14.08v-2.42h0Z"/>
    <path class="cls-2" d="M50.6,101.01h6.84l9.86-4.92v2.81l-6.66,3.32,6.66,3.31v2.81l-9.86-4.91h-6.84v-2.45.02Z"/>
    <path class="cls-2" d="M50.25,118.32c0-1.06.21-2.01.64-2.85.42-.85,1.03-1.54,1.83-2.08s1.73-.89,2.83-1.04l.44,2.51c-.99.21-1.76.66-2.3,1.32s-.81,1.44-.81,2.3c0,.51.09,1,.28,1.46s.46.82.81,1.11.79.42,1.31.42c.23,0,.45-.04.64-.1.2-.07.37-.16.53-.3.15-.13.3-.3.42-.5.13-.2.24-.44.33-.7l1.28-3.73c.11-.32.25-.67.43-1.04s.43-.72.75-1.05.73-.6,1.23-.81c.5-.21,1.12-.32,1.85-.32,1.07,0,1.98.23,2.71.7.73.47,1.28,1.11,1.64,1.91.36.8.54,1.69.53,2.66,0,.99-.2,1.87-.59,2.65s-.94,1.43-1.67,1.95c-.73.52-1.6.89-2.63,1.1l-.52-2.6c.59-.11,1.09-.31,1.5-.62s.73-.67.95-1.11c.22-.44.33-.91.35-1.4,0-.48-.08-.93-.25-1.34s-.42-.74-.75-.99c-.32-.25-.7-.38-1.14-.38-.41,0-.74.11-1,.32-.26.21-.46.48-.62.8-.15.32-.28.64-.38.96l-.84,2.58c-.11.36-.25.75-.44,1.2-.19.44-.45.87-.78,1.27s-.77.74-1.31,1.01c-.54.26-1.23.4-2.07.4s-1.63-.15-2.28-.46-1.2-.73-1.63-1.26-.76-1.13-.97-1.81c-.22-.67-.32-1.39-.32-2.13h.02Z"/>
    <path class="cls-2" d="M50.6,129.63h14.08v-4.68h2.62v11.76h-2.62v-4.68h-14.08v-2.42h0Z"/>
    <path class="cls-2" d="M50.25,144.44c0-1.45.37-2.68,1.1-3.71.73-1.03,1.75-1.82,3.06-2.37s2.82-.83,4.55-.83,3.24.28,4.55.83c1.31.55,2.33,1.34,3.06,2.37s1.1,2.27,1.1,3.71-.37,2.68-1.1,3.71c-.73,1.03-1.75,1.82-3.06,2.38-1.31.55-2.82.83-4.55.83s-3.24-.28-4.55-.83-2.33-1.34-3.06-2.38c-.73-1.03-1.1-2.28-1.1-3.71ZM52.88,144.44c0,.97.24,1.77.74,2.42s1.21,1.13,2.12,1.46,1.98.48,3.2.48,2.28-.16,3.18-.48c.9-.33,1.6-.81,2.11-1.46s.76-1.46.78-2.42c0-.97-.24-1.77-.74-2.42s-1.21-1.13-2.12-1.45c-.91-.33-1.98-.48-3.2-.48s-2.28.16-3.18.48c-.9.32-1.6.8-2.11,1.45-.5.65-.76,1.46-.78,2.42Z"/>
    <path class="cls-2" d="M50.6,153.36h16.71v5.97c0,.14,0,.32-.02.54-.01.22-.04.42-.08.61-.15.84-.47,1.52-.96,2.07-.49.55-1.12.95-1.87,1.21s-1.59.4-2.51.4c-1.36,0-2.53-.3-3.51-.9s-1.58-1.5-1.82-2.74l-.1-1.03v-3.72h-5.84v-2.42h0ZM50.6,161.65l6.8-2.85.63,2.46-7.42,3.13v-2.74h-.01ZM59.04,155.77v3.45c0,.13,0,.28.02.45.01.16.05.32.09.46.12.4.32.71.61.94s.63.4,1,.49.73.14,1.09.14.72-.05,1.1-.14c.38-.1.71-.26,1-.49s.5-.55.62-.94c.05-.14.08-.3.09-.46s.02-.32.02-.45v-3.45h-5.64Z"/>
    <path class="cls-2" d="M50.6,165.6l16.71,4.55v3.54l-16.71,4.55v-2.49l14.99-4.14v.54l-14.99-4.08v-2.49h0ZM54.22,168.13h2.61v7.59h-2.61v-7.59Z"/>
    <path class="cls-2" d="M50.25,185.6c0-.94.19-1.81.57-2.63s.95-1.54,1.69-2.16c.74-.62,1.65-1.1,2.73-1.45s2.31-.52,3.71-.52c1.83,0,3.39.3,4.68.89,1.3.59,2.29,1.4,2.98,2.42s1.04,2.18,1.04,3.46c0,1.78-.48,3.19-1.43,4.23-.96,1.04-2.3,1.74-4.02,2.11l-.45-2.47c.99-.28,1.78-.72,2.37-1.34.59-.62.89-1.42.89-2.38.02-.97-.23-1.77-.73-2.42s-1.21-1.13-2.12-1.45c-.91-.33-1.98-.48-3.2-.48s-2.28.16-3.18.48c-.9.32-1.6.8-2.11,1.45-.5.65-.76,1.46-.78,2.42,0,.73.15,1.37.46,1.92s.79.99,1.43,1.34,1.44.58,2.4.7v-2.54h2.19v5.12c-.12,0-.31.02-.55.03-.24,0-.38,0-.43,0-1.58,0-2.98-.27-4.21-.81-1.23-.54-2.19-1.31-2.88-2.31s-1.04-2.21-1.04-3.61h-.01Z"/>
    <path class="cls-2" d="M50.6,194.32h16.71v9.33h-2.62v-6.91h-4.12v5.71h-2.62v-5.71h-4.72v6.91h-2.62v-9.33h-.01Z"/>
    <path class="cls-2" d="M22.75,88.73h16.71v5.97c0,.14,0,.32-.02.54-.01.22-.04.42-.08.61-.15.84-.47,1.52-.96,2.07-.49.55-1.12.95-1.87,1.21s-1.59.4-2.51.4c-1.36,0-2.53-.3-3.51-.9-.98-.6-1.58-1.5-1.82-2.74l-.1-1.03v-3.72h-5.84v-2.42h0ZM22.75,97.03l6.8-2.85.63,2.46-7.42,3.13v-2.74h-.01ZM31.2,91.15v3.45c0,.13,0,.28.02.45.01.16.05.32.09.46.12.4.32.71.61.94s.63.4,1,.49.73.14,1.09.14.72-.05,1.1-.14c.38-.1.71-.26,1-.49s.5-.55.62-.94c.05-.14.08-.3.09-.46s.02-.32.02-.45v-3.45h-5.64Z"/>
    <path class="cls-2" d="M22.41,108.07c0-1.45.37-2.68,1.1-3.71.73-1.03,1.75-1.82,3.06-2.37s2.82-.83,4.55-.83,3.24.28,4.55.83,2.33,1.34,3.06,2.37,1.1,2.27,1.1,3.71-.37,2.68-1.1,3.71c-.73,1.03-1.75,1.82-3.06,2.38-1.31.55-2.82.83-4.55.83s-3.24-.28-4.55-.83-2.33-1.34-3.06-2.38c-.73-1.03-1.1-2.28-1.1-3.71ZM25.04,108.07c0,.97.24,1.77.74,2.42s1.21,1.13,2.12,1.46,1.98.48,3.2.48,2.28-.16,3.18-.48c.9-.33,1.6-.81,2.11-1.46s.76-1.46.78-2.42c0-.97-.24-1.77-.74-2.42s-1.21-1.13-2.12-1.45c-.91-.33-1.98-.48-3.2-.48s-2.28.16-3.18.48c-.9.32-1.6.8-2.11,1.45-.5.65-.76,1.46-.78,2.42Z"/>
    <path class="cls-2" d="M22.41,123.1c0-1.45.37-2.68,1.1-3.71.73-1.03,1.75-1.82,3.06-2.37s2.82-.83,4.55-.83,3.24.28,4.55.83c1.31.55,2.33,1.34,3.06,2.37s1.1,2.27,1.1,3.71-.37,2.68-1.1,3.71c-.73,1.03-1.75,1.82-3.06,2.38-1.31.55-2.82.83-4.55.83s-3.24-.28-4.55-.83-2.33-1.34-3.06-2.38c-.73-1.03-1.1-2.28-1.1-3.71ZM25.04,123.1c0,.97.24,1.77.74,2.42s1.21,1.13,2.12,1.46,1.98.48,3.2.48,2.28-.16,3.18-.48c.9-.33,1.6-.81,2.11-1.46.51-.65.76-1.46.78-2.42,0-.97-.24-1.77-.74-2.42s-1.21-1.13-2.12-1.45c-.91-.33-1.98-.48-3.2-.48s-2.28.16-3.18.48c-.9.32-1.6.8-2.11,1.45-.5.65-.76,1.46-.78,2.42Z"/>
    <path class="cls-2" d="M22.75,132.03h16.71v2.18l-11.83,4.99,11.83,4.99v2.18h-16.71v-2.26h10.71l-10.71-4.43v-.96l10.71-4.42h-10.71v-2.27Z"/>
  </g>
</svg>