<?xml version="1.0" encoding="UTF-8"?>
<svg id="Layer_2" xmlns="http://www.w3.org/2000/svg" viewBox="0 0 261.34 253.96">
  <defs>
    <style>
      .cls-1 {
        fill: #231f20;
      }

      .cls-2 {
        fill: #afbacc;
      }
    </style>
  </defs>
  <path class="cls-2" d="M261.34,13.71v226.56c0,7.56-5.97,13.69-13.34,13.69H13.34c-7.37,0-13.34-6.13-13.34-13.69v-114.7c0-4.69,2.34-9.07,6.2-11.58C89.59,59.93,170.45,22.26,244.3.54c8.54-2.51,17.04,4.05,17.04,13.16h0Z"/>
  <g>
    <path class="cls-1" d="M72.01,156.53c-1.99,0-3.78-.33-5.37-.98-1.59-.65-2.9-1.58-3.92-2.79-1.03-1.21-1.68-2.65-1.95-4.32l4.72-.67c.4,1.51,1.23,2.68,2.48,3.51s2.69,1.24,4.33,1.24c.97,0,1.88-.14,2.74-.42.85-.28,1.55-.7,2.08-1.24.53-.54.8-1.21.8-2,0-.35-.06-.68-.19-.98s-.31-.57-.56-.81c-.25-.24-.56-.45-.94-.65s-.83-.36-1.33-.5l-7.02-1.95c-.6-.17-1.25-.39-1.95-.67s-1.36-.66-1.98-1.15c-.62-.49-1.13-1.12-1.53-1.88-.4-.76-.59-1.7-.59-2.83,0-1.64.44-3.02,1.33-4.14.89-1.12,2.08-1.95,3.58-2.51s3.17-.83,5.01-.82c1.86,0,3.52.31,4.98.9,1.46.58,2.68,1.43,3.66,2.54s1.67,2.45,2.08,4.02l-4.89.8c-.2-.9-.59-1.66-1.16-2.3-.57-.63-1.27-1.11-2.09-1.44s-1.7-.51-2.63-.53c-.91,0-1.75.12-2.52.38-.77.27-1.4.65-1.87,1.14-.47.5-.71,1.08-.71,1.74s.2,1.14.6,1.53c.4.4.9.71,1.5.94s1.21.42,1.82.58l4.87,1.28c.67.17,1.42.39,2.25.67s1.63.68,2.4,1.19c.77.51,1.4,1.18,1.9,2,.5.83.75,1.88.75,3.16s-.29,2.49-.88,3.48c-.58,1-1.37,1.83-2.37,2.49-.99.66-2.13,1.16-3.41,1.49-1.28.33-2.61.5-4.01.5h0Z"/>
    <path class="cls-1" d="M86.76,156v-25.53h17.55v4.01h-13v6.29h10.74v4.01h-10.74v7.21h13v4.01h-17.55Z"/>
    <path class="cls-1" d="M108.84,156v-25.53h11.23c.26,0,.6,0,1.02.03.42.02.8.06,1.15.12,1.57.22,2.87.71,3.9,1.47s1.79,1.71,2.28,2.86c.5,1.15.75,2.43.75,3.84,0,2.08-.56,3.87-1.68,5.36-1.12,1.5-2.84,2.42-5.15,2.77l-1.94.16h-7v8.92h-4.56ZM113.38,143.09h6.49c.25,0,.53,0,.85-.04.31-.02.6-.07.87-.14.75-.18,1.35-.49,1.78-.94s.74-.96.92-1.52c.18-.57.27-1.12.27-1.67s-.09-1.1-.27-1.68c-.18-.57-.49-1.08-.92-1.53s-1.03-.76-1.78-.94c-.26-.07-.55-.12-.87-.13s-.6-.03-.85-.03h-6.49v8.61h0ZM124.44,156l-5.36-10.39,4.62-.96,5.89,11.34h-5.15Z"/>
    <path class="cls-1" d="M139.86,156l-8.57-25.53h4.68l7.17,21.38,7.26-21.38h4.68l-8.57,25.53h-6.66.01Z"/>
    <path class="cls-1" d="M157.91,156v-25.53h17.55v4.01h-13v6.29h10.74v4.01h-10.74v7.21h13v4.01h-17.55Z"/>
    <path class="cls-1" d="M179.99,156v-25.53h11.23c.26,0,.6,0,1.02.03.42.02.8.06,1.15.12,1.57.22,2.87.71,3.9,1.47s1.79,1.71,2.28,2.86c.5,1.15.75,2.43.75,3.84,0,2.08-.56,3.87-1.68,5.36-1.12,1.5-2.84,2.42-5.15,2.77l-1.94.16h-7v8.92h-4.56ZM184.54,143.09h6.49c.25,0,.53,0,.85-.04.31-.02.6-.07.87-.14.75-.18,1.35-.49,1.78-.94s.74-.96.92-1.52c.18-.57.27-1.12.27-1.67s-.09-1.1-.27-1.68c-.18-.57-.49-1.08-.92-1.53s-1.03-.76-1.78-.94c-.26-.07-.55-.12-.87-.13s-.6-.03-.85-.03h-6.49v8.61h0ZM195.59,156l-5.36-10.39,4.62-.96,5.89,11.34h-5.15Z"/>
    <path class="cls-1" d="M80.33,198.54v-25.53h11.23c.26,0,.6,0,1.02.03.42.02.8.06,1.15.12,1.57.22,2.87.71,3.9,1.47s1.79,1.71,2.28,2.86c.5,1.15.75,2.43.75,3.84,0,2.08-.56,3.87-1.68,5.36-1.12,1.5-2.84,2.42-5.15,2.77l-1.94.16h-7v8.92h-4.56ZM84.87,185.64h6.49c.25,0,.53,0,.85-.04.31-.02.6-.07.87-.14.75-.18,1.35-.49,1.78-.94s.74-.96.92-1.52c.18-.57.27-1.12.27-1.67s-.09-1.1-.27-1.68c-.18-.57-.49-1.08-.92-1.53s-1.03-.76-1.78-.94c-.26-.07-.55-.12-.87-.13s-.6-.03-.85-.03h-6.49v8.61h0ZM95.93,198.54l-5.36-10.39,4.62-.96,5.89,11.34h-5.15Z"/>
    <path class="cls-1" d="M116.72,199.08c-2.72,0-5.04-.56-6.98-1.68s-3.42-2.67-4.46-4.67c-1.04-2-1.56-4.31-1.56-6.95s.52-4.95,1.56-6.95c1.04-2,2.53-3.55,4.46-4.67,1.94-1.12,4.26-1.67,6.98-1.67s5.05.56,6.99,1.67c1.94,1.12,3.43,2.67,4.47,4.67s1.56,4.31,1.56,6.95-.52,4.95-1.56,6.95-2.53,3.55-4.47,4.67c-1.94,1.12-4.27,1.68-6.99,1.68ZM116.72,195.05c1.82,0,3.34-.37,4.56-1.13,1.21-.77,2.12-1.85,2.74-3.24s.92-3.03.92-4.89-.3-3.49-.92-4.87-1.52-2.45-2.74-3.22c-1.21-.77-2.73-1.16-4.56-1.19-1.82,0-3.34.37-4.55,1.13-1.21.77-2.12,1.85-2.73,3.24s-.92,3.03-.92,4.89.3,3.49.91,4.87c.6,1.38,1.51,2.45,2.73,3.22,1.21.77,2.73,1.16,4.56,1.19Z"/>
    <path class="cls-1" d="M145.01,199.08c-2.72,0-5.04-.56-6.98-1.68-1.94-1.12-3.42-2.67-4.46-4.67-1.04-2-1.56-4.31-1.56-6.95s.52-4.95,1.56-6.95c1.04-2,2.53-3.55,4.46-4.67,1.94-1.12,4.26-1.67,6.98-1.67s5.05.56,6.99,1.67c1.94,1.12,3.43,2.67,4.47,4.67,1.04,2,1.56,4.31,1.56,6.95s-.52,4.95-1.56,6.95c-1.04,2-2.53,3.55-4.47,4.67-1.94,1.12-4.27,1.68-6.99,1.68ZM145.01,195.05c1.82,0,3.34-.37,4.56-1.13,1.21-.77,2.12-1.85,2.74-3.24s.92-3.03.92-4.89-.3-3.49-.92-4.87-1.52-2.45-2.74-3.22c-1.21-.77-2.73-1.16-4.56-1.19-1.82,0-3.34.37-4.55,1.13-1.21.77-2.12,1.85-2.73,3.24-.61,1.39-.92,3.03-.92,4.89s.3,3.49.91,4.87c.6,1.38,1.51,2.45,2.73,3.22,1.21.77,2.73,1.16,4.56,1.19Z"/>
    <path class="cls-1" d="M161.8,198.54v-25.53h4.09l9.4,18.08,9.4-18.08h4.09v25.53h-4.25v-16.36l-8.34,16.36h-1.81l-8.32-16.36v16.36h-4.26Z"/>
  </g>
</svg>