<?xml version="1.0" encoding="UTF-8"?>
<svg id="Layer_2" xmlns="http://www.w3.org/2000/svg" xmlns:xlink="http://www.w3.org/1999/xlink" viewBox="0 0 182.03 277.22">
  <defs>
    <style>
      .cls-1 {
        fill: #fff;
      }

      .cls-2 {
        fill: url(#New_Gradient_Swatch);
      }
    </style>
    <linearGradient id="New_Gradient_Swatch" data-name="New Gradient Swatch" x1="91.01" y1="277.22" x2="91.01" y2="0" gradientUnits="userSpaceOnUse">
      <stop offset="0" stop-color="#fff"/>
      <stop offset="0" stop-color="#fb0023"/>
      <stop offset=".16" stop-color="#f70628"/>
      <stop offset=".39" stop-color="#ed1836"/>
      <stop offset=".65" stop-color="#dd364d"/>
      <stop offset=".94" stop-color="#c65f6d"/>
      <stop offset="1" stop-color="#c16975"/>
    </linearGradient>
  </defs>
  <rect class="cls-2" width="182.03" height="277.22" rx="9.24" ry="9.24"/>
  <g>
    <path class="cls-1" d="M33.19,127.49c-1.54,0-2.92-.25-4.15-.75-1.23-.5-2.24-1.22-3.03-2.16-.79-.94-1.29-2.05-1.51-3.33l3.64-.52c.31,1.17.95,2.07,1.92,2.71s2.08.96,3.34.96c.75,0,1.45-.11,2.11-.33s1.2-.54,1.61-.96.62-.94.62-1.55c0-.27-.05-.53-.15-.76-.1-.23-.24-.44-.43-.62s-.43-.35-.73-.5-.64-.28-1.03-.39l-5.42-1.51c-.47-.13-.97-.3-1.51-.51-.54-.21-1.05-.51-1.53-.89-.48-.38-.88-.86-1.18-1.45-.31-.59-.46-1.32-.46-2.18,0-1.27.34-2.33,1.03-3.2.68-.86,1.61-1.51,2.77-1.94,1.16-.43,2.45-.64,3.87-.63,1.44,0,2.72.24,3.85.69s2.07,1.11,2.83,1.96c.76.86,1.29,1.89,1.6,3.11l-3.77.62c-.16-.69-.45-1.28-.9-1.77-.44-.49-.98-.86-1.62-1.12s-1.31-.39-2.03-.41c-.7,0-1.35.09-1.95.29s-1.08.5-1.44.88-.55.83-.55,1.34c0,.48.16.88.47,1.18.31.31.7.55,1.16.73.46.18.93.33,1.41.44l3.76.99c.52.13,1.09.3,1.73.52.64.22,1.26.52,1.85.92s1.08.91,1.46,1.55c.38.64.58,1.45.58,2.44s-.23,1.92-.68,2.69-1.06,1.41-1.83,1.92-1.64.89-2.63,1.15-2.02.38-3.1.38h.02Z"/>
    <path class="cls-1" d="M49.63,127.08v-16.62h-6.79v-3.09h17.09v3.09h-6.79v16.62h-3.51Z"/>
    <path class="cls-1" d="M71.14,127.49c-2.1,0-3.9-.43-5.39-1.29-1.5-.86-2.65-2.07-3.45-3.61-.8-1.54-1.2-3.33-1.2-5.37s.4-3.82,1.2-5.37c.8-1.54,1.95-2.75,3.45-3.61,1.5-.86,3.29-1.29,5.39-1.29s3.9.43,5.4,1.29,2.65,2.07,3.45,3.61c.8,1.54,1.2,3.33,1.2,5.37s-.4,3.82-1.2,5.37c-.8,1.54-1.95,2.74-3.45,3.61-1.5.86-3.3,1.29-5.4,1.29ZM71.14,124.38c1.41,0,2.58-.28,3.52-.88.94-.6,1.64-1.43,2.11-2.51.47-1.08.71-2.34.71-3.78s-.24-2.7-.71-3.76c-.47-1.06-1.18-1.89-2.11-2.48-.94-.59-2.11-.9-3.52-.92-1.41,0-2.58.28-3.51.88-.93.59-1.63,1.43-2.11,2.5-.47,1.08-.71,2.34-.71,3.78s.23,2.69.7,3.76c.47,1.06,1.17,1.89,2.11,2.49.94.59,2.11.9,3.52.92h0Z"/>
    <path class="cls-1" d="M84.11,127.08v-19.72h8.67c.2,0,.47,0,.79.02.32.01.62.04.89.09,1.21.17,2.22.55,3.01,1.14.79.58,1.38,1.32,1.76,2.21.38.89.58,1.88.58,2.96,0,1.61-.43,2.99-1.3,4.14s-2.19,1.87-3.98,2.14l-1.5.12h-5.41v6.89h-3.51ZM87.62,117.11h5.01c.19,0,.41,0,.66-.03.24-.02.47-.06.67-.11.58-.14,1.04-.38,1.38-.73s.57-.74.71-1.18.21-.87.21-1.29-.07-.85-.21-1.29-.38-.84-.71-1.18c-.33-.35-.79-.59-1.38-.73-.2-.05-.43-.09-.67-.1s-.46-.02-.66-.02h-5.01v6.65h0ZM96.16,127.08l-4.14-8.02,3.57-.74,4.55,8.76h-3.98Z"/>
    <path class="cls-1" d="M101.89,127.08l6.62-19.72h5.14l6.62,19.72h-3.61l-6-17.69h.79l-5.93,17.69h-3.63ZM105.58,122.81v-3.08h11.02v3.08h-11.02Z"/>
    <path class="cls-1" d="M130.96,127.49c-1.36,0-2.63-.23-3.83-.68-1.19-.45-2.23-1.12-3.13-1.99-.9-.88-1.6-1.95-2.11-3.22-.5-1.27-.76-2.73-.76-4.37,0-2.15.43-4,1.28-5.52.85-1.53,2.03-2.7,3.51-3.52,1.49-.82,3.16-1.23,5.03-1.23,2.58,0,4.63.56,6.14,1.69,1.51,1.13,2.53,2.71,3.07,4.74l-3.58.53c-.4-1.17-1.05-2.1-1.95-2.8-.9-.7-2.05-1.05-3.45-1.05-1.41-.02-2.58.27-3.51.86s-1.63,1.43-2.11,2.5c-.47,1.08-.71,2.34-.71,3.78s.23,2.69.7,3.76c.47,1.06,1.17,1.89,2.11,2.49.94.59,2.11.9,3.52.92,1.06,0,1.99-.17,2.78-.54.8-.37,1.45-.93,1.95-1.68s.85-1.7,1.02-2.83h-3.7v-2.59h7.43c.02.15.03.36.04.64s.01.45.01.51c0,1.86-.39,3.52-1.17,4.96-.78,1.45-1.9,2.58-3.36,3.4-1.46.82-3.2,1.23-5.23,1.23h0Z"/>
    <path class="cls-1" d="M143.64,127.08v-19.72h13.55v3.09h-10.04v4.86h8.29v3.09h-8.29v5.57h10.04v3.09h-13.55v.02Z"/>
    <path class="cls-1" d="M49.13,159.94v-19.72h8.67c.2,0,.47,0,.79.02.32.01.62.04.89.09,1.21.17,2.22.55,3.01,1.14.79.58,1.38,1.32,1.76,2.21s.58,1.88.58,2.96c0,1.61-.43,2.99-1.3,4.14s-2.19,1.87-3.98,2.14l-1.5.12h-5.41v6.89h-3.51ZM52.65,149.97h5.01c.19,0,.41,0,.66-.03.24-.02.47-.06.67-.11.58-.14,1.04-.38,1.38-.73s.57-.74.71-1.18.21-.87.21-1.29-.07-.85-.21-1.29-.38-.84-.71-1.18c-.33-.35-.79-.59-1.38-.73-.2-.05-.43-.09-.67-.1-.24-.01-.46-.02-.66-.02h-5.01v6.65h0ZM61.19,159.94l-4.14-8.02,3.57-.74,4.55,8.76h-3.98Z"/>
    <path class="cls-1" d="M77.25,160.35c-2.1,0-3.9-.43-5.39-1.29-1.5-.86-2.65-2.07-3.45-3.61s-1.2-3.33-1.2-5.37.4-3.82,1.2-5.37c.8-1.54,1.95-2.75,3.45-3.61s3.29-1.29,5.39-1.29,3.9.43,5.4,1.29,2.65,2.07,3.45,3.61,1.2,3.33,1.2,5.37-.4,3.82-1.2,5.37c-.8,1.54-1.95,2.74-3.45,3.61-1.5.86-3.3,1.29-5.4,1.29ZM77.25,157.24c1.41,0,2.58-.28,3.52-.88s1.64-1.43,2.11-2.51.71-2.34.71-3.78-.24-2.7-.71-3.76c-.47-1.06-1.18-1.89-2.11-2.48-.94-.59-2.11-.9-3.52-.92-1.41,0-2.58.28-3.51.88-.93.59-1.63,1.43-2.11,2.5-.47,1.08-.71,2.34-.71,3.78s.23,2.69.7,3.76c.47,1.06,1.17,1.89,2.11,2.49.94.59,2.11.9,3.52.92Z"/>
    <path class="cls-1" d="M99.09,160.35c-2.1,0-3.9-.43-5.39-1.29-1.5-.86-2.65-2.07-3.45-3.61s-1.2-3.33-1.2-5.37.4-3.82,1.2-5.37c.8-1.54,1.95-2.75,3.45-3.61s3.29-1.29,5.39-1.29,3.9.43,5.4,1.29,2.65,2.07,3.45,3.61,1.2,3.33,1.2,5.37-.4,3.82-1.2,5.37c-.8,1.54-1.95,2.74-3.45,3.61-1.5.86-3.3,1.29-5.4,1.29ZM99.09,157.24c1.41,0,2.58-.28,3.52-.88s1.64-1.43,2.11-2.51.71-2.34.71-3.78-.24-2.7-.71-3.76c-.47-1.06-1.18-1.89-2.11-2.48-.94-.59-2.11-.9-3.52-.92-1.41,0-2.58.28-3.51.88-.93.59-1.63,1.43-2.11,2.5-.47,1.08-.71,2.34-.71,3.78s.23,2.69.7,3.76c.47,1.06,1.17,1.89,2.11,2.49.94.59,2.11.9,3.52.92Z"/>
    <path class="cls-1" d="M112.06,159.94v-19.72h3.16l7.26,13.97,7.26-13.97h3.16v19.72h-3.28v-12.64l-6.44,12.64h-1.4l-6.43-12.64v12.64h-3.29,0Z"/>
  </g>
</svg>