<?xml version="1.0" encoding="UTF-8"?>
<svg id="Layer_2" xmlns="http://www.w3.org/2000/svg" viewBox="0 0 88.67 95.64">
  <defs>
    <style>
      .cls-1 {
        fill: #afbacc;
      }

      .cls-2 {
        fill: #231f20;
      }
    </style>
  </defs>
  <rect class="cls-1" width="88.67" height="95.64" rx="4.89" ry="4.89"/>
  <g>
    <path class="cls-2" d="M23.03,47.82l-3.07-9.86h1.84l2.09,7.12,2.08-7.11h1.84l2.09,7.11,2.08-7.12h1.84l-3.06,9.86h-1.73l-2.15-7.01-2.13,7.01h-1.73,0Z"/>
    <path class="cls-2" d="M33.28,47.82l3.31-9.86h2.57l3.31,9.86h-1.81l-3-8.84h.39l-2.97,8.84h-1.81,0ZM35.12,45.69v-1.54h5.51v1.54h-5.51Z"/>
    <path class="cls-2" d="M45.43,47.82v-8.31h-3.4v-1.55h8.55v1.55h-3.4v8.31h-1.76.01Z"/>
    <path class="cls-2" d="M51.75,47.82v-9.86h6.78v1.55h-5.02v2.43h4.15v1.55h-4.15v2.79h5.02v1.55h-6.78Z"/>
    <path class="cls-2" d="M60.27,47.82v-9.86h4.72c.16,0,.31.02.44.04.61.09,1.11.28,1.5.57s.69.66.88,1.11c.19.44.29.94.29,1.48,0,.8-.22,1.49-.65,2.07-.43.58-1.1.93-1.99,1.07l-.75.06h-2.7v3.44h-1.76l.02.02ZM62.03,42.84h2.51c.1,0,.21,0,.33-.01.12,0,.23-.03.34-.05.29-.07.52-.19.69-.36s.29-.37.36-.59c.07-.22.11-.43.11-.64s-.04-.42-.11-.65-.19-.42-.36-.59c-.17-.17-.4-.29-.69-.36-.1-.03-.21-.04-.34-.05h-2.84v3.33-.03ZM66.3,47.82l-2.07-4.01,1.79-.37,2.27,4.38h-1.99Z"/>
    <path class="cls-2" d="M22.57,64.46c-.77,0-1.46-.12-2.07-.38-.62-.25-1.12-.61-1.52-1.08-.4-.47-.65-1.02-.75-1.67l1.82-.26c.16.58.47,1.04.96,1.36.48.32,1.04.48,1.67.48.37,0,.73-.05,1.06-.16s.6-.27.81-.48c.21-.21.31-.47.31-.77,0-.14-.02-.26-.07-.38s-.12-.22-.21-.31-.22-.17-.36-.25-.32-.14-.51-.2l-2.71-.75c-.23-.06-.49-.15-.75-.26-.27-.11-.52-.25-.76-.44s-.44-.43-.59-.73c-.15-.29-.23-.66-.23-1.09,0-.63.17-1.17.51-1.6s.8-.75,1.38-.97,1.23-.32,1.93-.32,1.36.12,1.92.35,1.03.55,1.41.98c.38.43.65.95.8,1.55l-1.89.31c-.08-.35-.23-.64-.45-.89-.22-.24-.49-.43-.81-.56s-.66-.2-1.02-.21c-.35,0-.67.04-.97.15-.3.1-.54.25-.72.44s-.27.42-.27.67.08.44.23.59.35.27.58.36c.23.09.46.16.7.22l1.88.49c.26.06.55.15.87.26s.63.26.93.46.54.45.73.77.29.73.29,1.22-.11.96-.34,1.34c-.23.39-.53.71-.91.96-.38.26-.82.45-1.32.58s-1.01.19-1.55.19v.03Z"/>
    <path class="cls-2" d="M32.49,64.46c-.83,0-1.57-.16-2.2-.48s-1.13-.77-1.49-1.35c-.36-.58-.54-1.26-.54-2.04v-6.18h1.78v6.14c0,.37.07.7.2.99s.31.54.54.74.49.36.79.46c.3.1.6.16.92.16s.64-.05.93-.16.55-.26.78-.46c.23-.2.41-.45.54-.74s.2-.62.2-.99v-6.15h1.78v6.2c0,.78-.18,1.46-.54,2.04-.36.58-.85,1.03-1.49,1.35-.63.32-1.37.48-2.2.48h0Z"/>
    <path class="cls-2" d="M38.76,64.25v-9.86h4.72c.16,0,.31.02.44.04.61.09,1.11.28,1.5.57s.69.66.88,1.11c.19.44.29.94.29,1.48s-.1,1.03-.29,1.48-.49.81-.88,1.11c-.4.29-.9.48-1.5.57-.14.02-.29.03-.45.04-.16,0-.29.01-.39.01h-2.58v3.44h-1.76.02ZM40.52,59.27h2.51c.1,0,.21,0,.33-.01.12,0,.23-.03.34-.05.29-.07.52-.19.69-.36s.29-.37.36-.59c.07-.22.11-.43.11-.64s-.04-.42-.11-.65-.19-.42-.36-.59c-.17-.17-.4-.29-.69-.36-.1-.03-.21-.04-.34-.05h-2.84v3.33-.03Z"/>
    <path class="cls-2" d="M48.06,64.25v-9.86h4.72c.16,0,.31.02.44.04.61.09,1.11.28,1.5.57s.69.66.88,1.11c.19.44.29.94.29,1.48s-.1,1.03-.29,1.48-.49.81-.88,1.11c-.4.29-.9.48-1.5.57-.14.02-.29.03-.45.04-.16,0-.29.01-.39.01h-2.58v3.44h-1.76.02ZM49.82,59.27h2.51c.1,0,.21,0,.33-.01.12,0,.23-.03.34-.05.29-.07.52-.19.69-.36s.29-.37.36-.59c.07-.22.11-.43.11-.64s-.04-.42-.11-.65-.19-.42-.36-.59c-.17-.17-.4-.29-.69-.36-.1-.03-.21-.04-.34-.05h-2.84v3.33-.03Z"/>
    <path class="cls-2" d="M57.51,64.25v-9.86h1.76v8.31h4.63v1.55h-6.39Z"/>
    <path class="cls-2" d="M66.24,64.25v-4.04l-3.57-5.82h2.05l2.41,3.93,2.41-3.93h2.05l-3.56,5.82v4.04h-1.79Z"/>
  </g>
</svg>