<?xml version="1.0" encoding="UTF-8"?>
<svg id="Layer_2" xmlns="http://www.w3.org/2000/svg" viewBox="0 0 193.27 88.7">
  <defs>
    <style>
      .cls-1 {
        fill: #afbacc;
      }
    </style>
  </defs>
  <path class="cls-1" d="M193.27,15.49v57.72c0,8.56-7.56,15.49-16.88,15.49H16.88c-9.32,0-16.88-6.94-16.88-15.49V15.49C0,6.93,7.56,0,16.88,0h159.51c9.32,0,16.88,6.94,16.88,15.49h0Z"/>
  <g>
    <path d="M61.83,37l-6.14-21.01h3.69l4.19,15.17,4.17-15.15,3.69-.03,4.19,15.17,4.17-15.17h3.69l-6.13,21.01h-3.47l-4.3-14.94-4.28,14.94h-3.47Z"/>
    <path d="M94.16,37.44c-2.1,0-3.9-.46-5.4-1.38-1.5-.92-2.65-2.2-3.45-3.84-.8-1.64-1.2-3.55-1.2-5.72s.4-4.08,1.2-5.72c.8-1.64,1.95-2.93,3.45-3.84,1.5-.92,3.3-1.38,5.4-1.38s3.9.46,5.41,1.38c1.5.92,2.66,2.2,3.46,3.84.8,1.64,1.2,3.55,1.2,5.72s-.4,4.08-1.2,5.72c-.8,1.64-1.96,2.93-3.46,3.84-1.5.92-3.31,1.38-5.41,1.38ZM94.16,34.13c1.41,0,2.58-.3,3.52-.93.94-.63,1.64-1.52,2.12-2.67.47-1.15.71-2.49.71-4.03s-.24-2.87-.71-4c-.47-1.13-1.18-2.02-2.12-2.65-.94-.63-2.11-.96-3.52-.98-1.41,0-2.58.3-3.52.93-.93.63-1.64,1.52-2.11,2.67-.47,1.15-.71,2.49-.71,4.03s.23,2.87.7,4.01c.47,1.13,1.17,2.02,2.11,2.65.94.63,2.11.96,3.52.98Z"/>
    <path d="M107.15,37V15.99h8.68c.2,0,.47,0,.79.02.32.01.62.05.89.09,1.22.19,2.22.59,3.01,1.21.79.62,1.38,1.41,1.77,2.36.38.95.58,2,.58,3.16,0,1.71-.43,3.18-1.3,4.41-.87,1.23-2.19,1.99-3.98,2.28l-1.5.13h-5.41v7.34h-3.52ZM110.66,26.38h5.02c.19,0,.41,0,.66-.03s.47-.06.67-.12c.58-.15,1.04-.4,1.38-.77.34-.37.57-.79.71-1.25.14-.47.21-.92.21-1.37s-.07-.91-.21-1.38c-.14-.47-.38-.89-.71-1.26s-.79-.63-1.38-.77c-.2-.06-.43-.09-.67-.11s-.46-.02-.66-.02h-5.02v7.09ZM119.21,37l-4.14-8.55,3.57-.79,4.55,9.34h-3.98Z"/>
    <path d="M126.41,37V15.99h3.52v9.75l8.39-9.75h4.32l-9.03,10.3,9.64,10.71h-4.46l-8.86-9.8v9.8h-3.52Z"/>
    <path d="M33.72,72.46c-1.54,0-2.92-.27-4.15-.8-1.23-.53-2.24-1.3-3.04-2.3s-1.3-2.18-1.51-3.55l3.65-.55c.31,1.25.95,2.21,1.92,2.89.97.68,2.08,1.02,3.35,1.02.75,0,1.45-.12,2.12-.35.66-.23,1.2-.57,1.61-1.02.41-.45.62-1,.62-1.65,0-.29-.05-.56-.15-.81-.1-.25-.24-.47-.43-.66s-.43-.37-.73-.53c-.3-.16-.64-.3-1.03-.42l-5.43-1.61c-.47-.14-.97-.32-1.51-.55s-1.05-.54-1.53-.95c-.48-.4-.88-.92-1.18-1.55-.31-.63-.46-1.4-.46-2.33,0-1.35.34-2.49,1.03-3.41.69-.92,1.61-1.61,2.77-2.06s2.45-.68,3.87-.67c1.44.01,2.72.26,3.85.74,1.13.48,2.07,1.18,2.83,2.09s1.29,2.02,1.61,3.31l-3.78.66c-.16-.74-.46-1.37-.9-1.89s-.98-.92-1.62-1.19c-.64-.27-1.32-.42-2.04-.44-.7,0-1.35.09-1.95.31-.6.22-1.08.53-1.44.94-.37.41-.55.89-.55,1.43,0,.52.16.94.47,1.26s.7.58,1.16.77c.46.19.93.35,1.41.47l3.76,1.05c.52.14,1.09.32,1.74.55.64.23,1.26.56,1.85.98.59.42,1.08.97,1.47,1.65.38.68.58,1.55.58,2.6s-.23,2.04-.68,2.87c-.45.82-1.06,1.5-1.83,2.05s-1.65.95-2.63,1.23-2.02.41-3.1.41Z"/>
    <path d="M50.18,72.02v-17.71h-6.8v-3.3h17.12v3.3h-6.8v17.71h-3.52Z"/>
    <path d="M60.79,72.02l6.62-21.01h5.15l6.62,21.01h-3.62l-6.01-18.85h.79l-5.94,18.85h-3.62ZM64.48,67.47v-3.28h11.03v3.28h-11.03Z"/>
    <path d="M85.11,72.02v-17.71h-6.8v-3.3h17.12v3.3h-6.8v17.71h-3.52Z"/>
    <path d="M98.05,72.02v-21.01h3.52v21.01h-3.52Z"/>
    <path d="M114.83,72.46c-2.1,0-3.9-.46-5.4-1.38-1.5-.92-2.65-2.2-3.45-3.84-.8-1.64-1.2-3.55-1.2-5.72s.4-4.08,1.2-5.72c.8-1.64,1.95-2.93,3.45-3.84,1.5-.92,3.3-1.38,5.4-1.38s3.9.46,5.41,1.38c1.5.92,2.66,2.2,3.46,3.84.8,1.64,1.2,3.55,1.2,5.72s-.4,4.08-1.2,5.72c-.8,1.64-1.96,2.93-3.46,3.84-1.5.92-3.31,1.38-5.41,1.38ZM114.83,69.14c1.41,0,2.58-.3,3.52-.93.94-.63,1.64-1.52,2.12-2.67.47-1.15.71-2.49.71-4.03s-.24-2.87-.71-4c-.47-1.13-1.18-2.02-2.12-2.65-.94-.63-2.11-.96-3.52-.98-1.41,0-2.58.3-3.52.93-.93.63-1.64,1.52-2.11,2.67-.47,1.15-.71,2.49-.71,4.03s.23,2.87.7,4.01c.47,1.13,1.17,2.02,2.11,2.65.94.63,2.11.96,3.52.98Z"/>
    <path d="M127.81,72.02v-21.01h3.56l9.75,14.81v-14.81h3.56v21.01h-3.56l-9.75-14.81v14.81h-3.56Z"/>
    <path d="M163.49,72.46c-2.1,0-3.9-.46-5.4-1.38-1.5-.92-2.65-2.2-3.45-3.84-.8-1.64-1.2-3.55-1.2-5.72s.4-4.08,1.2-5.72c.8-1.64,1.95-2.93,3.45-3.84,1.5-.92,3.3-1.38,5.4-1.38,2.42,0,4.44.61,6.05,1.82,1.62,1.21,2.75,2.84,3.4,4.89l-3.55.98c-.41-1.37-1.1-2.44-2.09-3.22s-2.26-1.16-3.82-1.16c-1.41,0-2.58.32-3.52.95-.94.63-1.64,1.52-2.12,2.66-.47,1.14-.71,2.48-.72,4.02,0,1.54.24,2.88.71,4.02.47,1.14,1.18,2.03,2.12,2.66.94.63,2.12.95,3.53.95,1.57,0,2.84-.39,3.82-1.17.98-.78,1.68-1.85,2.09-3.21l3.55.98c-.65,2.05-1.79,3.68-3.4,4.9-1.61,1.21-3.63,1.82-6.05,1.82Z"/>
  </g>
</svg>