<?xml version="1.0" encoding="UTF-8"?>
<svg id="Layer_2" xmlns="http://www.w3.org/2000/svg" viewBox="0 0 193.27 88.7">
  <defs>
    <style>
      .cls-1 {
        fill: #afbacc;
      }

      .cls-2 {
        fill: #231f20;
      }
    </style>
  </defs>
  <path class="cls-1" d="M193.27,15.49v57.72c0,8.56-7.56,15.49-16.88,15.49H16.88c-9.32,0-16.88-6.94-16.88-15.49V15.49C0,6.93,7.56,0,16.88,0h159.51c9.32,0,16.88,6.94,16.88,15.49Z"/>
  <g>
    <path class="cls-2" d="M59.51,36.57l-6.14-19.72h3.69l4.18,14.24,4.17-14.21,3.69-.03,4.18,14.24,4.17-14.24h3.69l-6.12,19.72h-3.47l-4.3-14.02-4.27,14.02h-3.47Z"/>
    <path class="cls-2" d="M91.8,36.98c-2.1,0-3.9-.43-5.39-1.29-1.5-.86-2.65-2.07-3.45-3.61-.8-1.54-1.2-3.33-1.2-5.37s.4-3.82,1.2-5.37c.8-1.54,1.95-2.75,3.45-3.61s3.29-1.29,5.39-1.29,3.9.43,5.4,1.29,2.65,2.07,3.45,3.61c.8,1.54,1.2,3.33,1.2,5.37s-.4,3.82-1.2,5.37c-.8,1.54-1.95,2.74-3.45,3.61-1.5.86-3.3,1.29-5.4,1.29ZM91.8,33.87c1.41,0,2.58-.28,3.52-.88s1.64-1.43,2.11-2.51c.47-1.08.71-2.34.71-3.78s-.24-2.7-.71-3.76c-.47-1.06-1.18-1.89-2.11-2.48-.94-.59-2.11-.9-3.52-.92-1.41,0-2.58.28-3.51.88-.93.59-1.63,1.43-2.11,2.5-.47,1.08-.71,2.34-.71,3.78s.23,2.69.7,3.76c.47,1.06,1.17,1.89,2.11,2.49.94.59,2.11.9,3.52.92h0Z"/>
    <path class="cls-2" d="M104.77,36.57v-19.72h8.67c.2,0,.47,0,.79.02.32.01.62.04.89.09,1.21.17,2.22.55,3.01,1.14.79.58,1.38,1.32,1.76,2.21.38.89.58,1.88.58,2.96,0,1.61-.43,2.99-1.3,4.14s-2.19,1.87-3.98,2.14l-1.5.12h-5.41v6.89h-3.51ZM108.28,26.6h5.01c.19,0,.41,0,.66-.03.24-.02.47-.06.67-.11.58-.14,1.04-.38,1.38-.73s.57-.74.71-1.18.21-.87.21-1.29-.07-.85-.21-1.29-.38-.84-.71-1.18c-.33-.35-.79-.59-1.38-.73-.2-.05-.43-.09-.67-.1s-.46-.02-.66-.02h-5.01v6.65h0ZM116.82,36.57l-4.14-8.02,3.57-.74,4.55,8.76h-3.98Z"/>
    <path class="cls-2" d="M124.01,36.57v-19.72h3.51v9.15l8.38-9.15h4.31l-9.02,9.67,9.63,10.05h-4.46l-8.85-9.2v9.2h-3.51,0Z"/>
    <path class="cls-2" d="M33,69.84c-1.54,0-2.92-.25-4.15-.75s-2.24-1.22-3.03-2.16-1.29-2.05-1.51-3.33l3.64-.52c.31,1.17.95,2.07,1.92,2.71s2.08.96,3.34.96c.75,0,1.45-.11,2.11-.33s1.2-.54,1.61-.96.62-.94.62-1.55c0-.27-.05-.53-.15-.76s-.24-.44-.43-.62-.43-.35-.73-.5c-.3-.15-.64-.28-1.03-.39l-5.42-1.51c-.47-.13-.97-.3-1.51-.51-.54-.21-1.05-.51-1.53-.89s-.88-.86-1.18-1.45c-.31-.59-.46-1.32-.46-2.18,0-1.27.34-2.33,1.03-3.2.68-.86,1.61-1.51,2.77-1.94s2.45-.64,3.87-.63c1.44,0,2.72.24,3.85.69s2.07,1.11,2.83,1.96c.76.86,1.29,1.89,1.6,3.11l-3.77.62c-.16-.69-.45-1.28-.9-1.77-.44-.49-.98-.86-1.62-1.12s-1.31-.39-2.03-.41c-.7,0-1.35.09-1.95.29s-1.08.5-1.44.88-.55.83-.55,1.34c0,.48.16.88.47,1.18.31.31.7.55,1.16.73.46.18.93.33,1.41.44l3.76.99c.52.13,1.09.3,1.73.52s1.26.52,1.85.92,1.08.91,1.46,1.55c.38.64.58,1.45.58,2.44s-.23,1.92-.68,2.69c-.45.77-1.06,1.41-1.83,1.92-.77.51-1.64.89-2.63,1.15s-2.02.38-3.1.38h.02Z"/>
    <path class="cls-2" d="M49.43,69.43v-16.62h-6.79v-3.09h17.09v3.09h-6.79v16.62h-3.51,0Z"/>
    <path class="cls-2" d="M60.03,69.43l6.62-19.72h5.14l6.62,19.72h-3.61l-6-17.69h.79l-5.93,17.69h-3.63ZM63.72,65.16v-3.08h11.02v3.08h-11.02Z"/>
    <path class="cls-2" d="M84.32,69.43v-16.62h-6.79v-3.09h17.09v3.09h-6.79v16.62h-3.51,0Z"/>
    <path class="cls-2" d="M97.25,69.43v-19.72h3.51v19.72h-3.51Z"/>
    <path class="cls-2" d="M114.01,69.84c-2.1,0-3.9-.43-5.39-1.29-1.5-.86-2.65-2.07-3.45-3.61-.8-1.54-1.2-3.33-1.2-5.37s.4-3.82,1.2-5.37c.8-1.54,1.95-2.75,3.45-3.61s3.29-1.29,5.39-1.29,3.9.43,5.4,1.29,2.65,2.07,3.45,3.61c.8,1.54,1.2,3.33,1.2,5.37s-.4,3.82-1.2,5.37c-.8,1.54-1.95,2.74-3.45,3.61-1.5.86-3.3,1.29-5.4,1.29ZM114.01,66.73c1.41,0,2.58-.28,3.52-.88s1.64-1.43,2.11-2.51c.47-1.08.71-2.34.71-3.78s-.24-2.7-.71-3.76c-.47-1.06-1.18-1.89-2.11-2.48-.94-.59-2.11-.9-3.52-.92-1.41,0-2.58.28-3.51.88-.93.59-1.63,1.43-2.11,2.5-.47,1.08-.71,2.34-.71,3.78s.23,2.69.7,3.76c.47,1.06,1.17,1.89,2.11,2.49.94.59,2.11.9,3.52.92h0Z"/>
    <path class="cls-2" d="M126.98,69.43v-19.72h3.56l9.74,13.9v-13.9h3.56v19.72h-3.56l-9.74-13.9v13.9h-3.56Z"/>
    <path class="cls-2" d="M153.73,69.43v-19.72h8.32c1.42,0,2.58.27,3.49.8s1.58,1.22,2.03,2.05c.44.83.66,1.69.66,2.57,0,1.09-.28,2.01-.82,2.77-.55.76-1.29,1.27-2.24,1.53v-.68c1.32.28,2.32.87,3.01,1.77.69.89,1.03,1.91,1.03,3.05s-.24,2.19-.71,3.07c-.48.88-1.18,1.56-2.12,2.05s-2.1.74-3.48.74h-9.17ZM157.29,57.59h4.72c.51,0,.96-.09,1.36-.27s.71-.45.95-.81c.23-.36.35-.79.35-1.31,0-.68-.23-1.25-.7-1.71s-1.12-.68-1.95-.68h-4.72v4.79h-.01ZM157.29,66.32h5.17c.61,0,1.16-.12,1.65-.35s.87-.56,1.14-.99c.28-.42.42-.93.42-1.51,0-.53-.12-1-.36-1.42s-.6-.75-1.06-1.01c-.47-.25-1.03-.38-1.68-.38h-5.28v5.66h0Z"/>
  </g>
</svg>